<mxfile host="app.diagrams.net" agent="Mozilla/5.0 (Windows NT 10.0; Win64; x64) AppleWebKit/537.36 (KHTML, like Gecko) Chrome/141.0.0.0 Safari/537.36 Edg/141.0.0.0" version="28.2.8">
  <diagram name="페이지-1" id="GlcNtZ1km3tHZAyMDBaJ">
    <mxGraphModel grid="1" page="1" gridSize="10" guides="1" tooltips="1" connect="1" arrows="1" fold="1" pageScale="1" pageWidth="827" pageHeight="1169" math="0" shadow="0">
      <root>
        <mxCell id="0" />
        <mxCell id="1" parent="0" />
        <mxCell id="Zwj_HbS0Xo6QSIKevfj4-1" value="이용자&lt;div&gt;&lt;br&gt;&lt;/div&gt;" style="whiteSpace=wrap;html=1;aspect=fixed;" vertex="1" parent="1">
          <mxGeometry x="-351.25" y="10" width="107.5" height="107.5" as="geometry" />
        </mxCell>
        <mxCell id="Zwj_HbS0Xo6QSIKevfj4-2" value="FAQ 카테고리" style="whiteSpace=wrap;html=1;aspect=fixed;" vertex="1" parent="1">
          <mxGeometry x="90" y="40" width="110" height="110" as="geometry" />
        </mxCell>
        <mxCell id="Zwj_HbS0Xo6QSIKevfj4-3" value="1:1 문의" style="whiteSpace=wrap;html=1;aspect=fixed;" vertex="1" parent="1">
          <mxGeometry x="-880" y="8.75" width="110" height="110" as="geometry" />
        </mxCell>
        <mxCell id="Zwj_HbS0Xo6QSIKevfj4-4" value="&lt;div&gt;분실물 문의&lt;/div&gt;" style="whiteSpace=wrap;html=1;aspect=fixed;" vertex="1" parent="1">
          <mxGeometry x="-110" y="890" width="100" height="100" as="geometry" />
        </mxCell>
        <mxCell id="Zwj_HbS0Xo6QSIKevfj4-5" value="공지사항" style="whiteSpace=wrap;html=1;aspect=fixed;" vertex="1" parent="1">
          <mxGeometry x="-347.5" y="320" width="117.5" height="117.5" as="geometry" />
        </mxCell>
        <mxCell id="Zwj_HbS0Xo6QSIKevfj4-6" value="자주 묻는 질문" style="whiteSpace=wrap;html=1;aspect=fixed;" vertex="1" parent="1">
          <mxGeometry x="380" y="250" width="110" height="110" as="geometry" />
        </mxCell>
        <mxCell id="Zwj_HbS0Xo6QSIKevfj4-7" value="1:1 문의 답변" style="whiteSpace=wrap;html=1;aspect=fixed;" vertex="1" parent="1">
          <mxGeometry x="-1037" y="610" width="107" height="107" as="geometry" />
        </mxCell>
        <mxCell id="Zwj_HbS0Xo6QSIKevfj4-8" value="극장정보" style="whiteSpace=wrap;html=1;aspect=fixed;" vertex="1" parent="1">
          <mxGeometry x="190" y="630" width="100" height="100" as="geometry" />
        </mxCell>
        <mxCell id="Zwj_HbS0Xo6QSIKevfj4-11" value="" style="endArrow=none;html=1;rounded=0;exitX=1;exitY=0.5;exitDx=0;exitDy=0;" edge="1" parent="1" source="Zwj_HbS0Xo6QSIKevfj4-12">
          <mxGeometry width="50" height="50" relative="1" as="geometry">
            <mxPoint x="-377.5" y="167.5" as="sourcePoint" />
            <mxPoint x="-297.5" y="117.5" as="targetPoint" />
          </mxGeometry>
        </mxCell>
        <mxCell id="Zwj_HbS0Xo6QSIKevfj4-12" value="로그인&amp;nbsp;&lt;div&gt;아이디&lt;/div&gt;" style="ellipse;whiteSpace=wrap;html=1;aspect=fixed;" vertex="1" parent="1">
          <mxGeometry x="-420" y="177.5" width="52.5" height="52.5" as="geometry" />
        </mxCell>
        <mxCell id="Zwj_HbS0Xo6QSIKevfj4-18" value="비밀번호" style="ellipse;whiteSpace=wrap;html=1;" vertex="1" parent="1">
          <mxGeometry x="-385" y="227.5" width="50" height="50" as="geometry" />
        </mxCell>
        <mxCell id="Zwj_HbS0Xo6QSIKevfj4-20" value="" style="endArrow=none;html=1;rounded=0;entryX=1;entryY=0;entryDx=0;entryDy=0;" edge="1" parent="1" source="Zwj_HbS0Xo6QSIKevfj4-27" target="Zwj_HbS0Xo6QSIKevfj4-18">
          <mxGeometry width="50" height="50" relative="1" as="geometry">
            <mxPoint x="-281.75" y="227.5" as="sourcePoint" />
            <mxPoint x="-363.25" y="199.5" as="targetPoint" />
            <Array as="points">
              <mxPoint x="-297.5" y="117.5" />
            </Array>
          </mxGeometry>
        </mxCell>
        <mxCell id="Zwj_HbS0Xo6QSIKevfj4-25" value="이메일" style="ellipse;whiteSpace=wrap;html=1;aspect=fixed;" vertex="1" parent="1">
          <mxGeometry x="-260" y="257.5" width="50" height="50" as="geometry" />
        </mxCell>
        <mxCell id="Zwj_HbS0Xo6QSIKevfj4-27" value="이름" style="ellipse;whiteSpace=wrap;html=1;aspect=fixed;" vertex="1" parent="1">
          <mxGeometry x="-330" y="250" width="50" height="50" as="geometry" />
        </mxCell>
        <mxCell id="Zwj_HbS0Xo6QSIKevfj4-34" value="휴대폰&lt;div&gt;번호&lt;/div&gt;" style="ellipse;whiteSpace=wrap;html=1;aspect=fixed;" vertex="1" parent="1">
          <mxGeometry x="-200" y="240" width="50" height="50" as="geometry" />
        </mxCell>
        <mxCell id="Zwj_HbS0Xo6QSIKevfj4-36" value="이용자&lt;div&gt;구분&lt;/div&gt;" style="ellipse;whiteSpace=wrap;html=1;aspect=fixed;" vertex="1" parent="1">
          <mxGeometry x="-170" y="177.5" width="50" height="50" as="geometry" />
        </mxCell>
        <mxCell id="Zwj_HbS0Xo6QSIKevfj4-39" value="가입일" style="ellipse;whiteSpace=wrap;html=1;aspect=fixed;" vertex="1" parent="1">
          <mxGeometry x="-150" y="127.5" width="50" height="50" as="geometry" />
        </mxCell>
        <mxCell id="Zwj_HbS0Xo6QSIKevfj4-42" value="" style="endArrow=none;html=1;rounded=0;exitX=0.34;exitY=0.04;exitDx=0;exitDy=0;exitPerimeter=0;" edge="1" parent="1" source="Zwj_HbS0Xo6QSIKevfj4-25">
          <mxGeometry width="50" height="50" relative="1" as="geometry">
            <mxPoint x="-277.5" y="187.5" as="sourcePoint" />
            <mxPoint x="-297.5" y="117.5" as="targetPoint" />
          </mxGeometry>
        </mxCell>
        <mxCell id="Zwj_HbS0Xo6QSIKevfj4-44" value="" style="endArrow=none;html=1;rounded=0;entryX=0.36;entryY=0.04;entryDx=0;entryDy=0;entryPerimeter=0;" edge="1" parent="1" target="Zwj_HbS0Xo6QSIKevfj4-34">
          <mxGeometry width="50" height="50" relative="1" as="geometry">
            <mxPoint x="-297.5" y="117.5" as="sourcePoint" />
            <mxPoint x="-247.5" y="207.5" as="targetPoint" />
          </mxGeometry>
        </mxCell>
        <mxCell id="Zwj_HbS0Xo6QSIKevfj4-46" value="" style="endArrow=none;html=1;rounded=0;entryX=0.5;entryY=1;entryDx=0;entryDy=0;" edge="1" parent="1" source="Zwj_HbS0Xo6QSIKevfj4-36" target="Zwj_HbS0Xo6QSIKevfj4-1">
          <mxGeometry width="50" height="50" relative="1" as="geometry">
            <mxPoint x="-247.5" y="167.5" as="sourcePoint" />
            <mxPoint x="-287.5" y="127.5" as="targetPoint" />
          </mxGeometry>
        </mxCell>
        <mxCell id="Zwj_HbS0Xo6QSIKevfj4-47" value="" style="endArrow=none;html=1;rounded=0;" edge="1" parent="1" target="Zwj_HbS0Xo6QSIKevfj4-39">
          <mxGeometry width="50" height="50" relative="1" as="geometry">
            <mxPoint x="-297.5" y="117.5" as="sourcePoint" />
            <mxPoint x="-187.5" y="87.5" as="targetPoint" />
          </mxGeometry>
        </mxCell>
        <mxCell id="Zwj_HbS0Xo6QSIKevfj4-48" value="답변 등록일" style="ellipse;whiteSpace=wrap;html=1;aspect=fixed;" vertex="1" parent="1">
          <mxGeometry x="-1020" y="795" width="70" height="70" as="geometry" />
        </mxCell>
        <mxCell id="Zwj_HbS0Xo6QSIKevfj4-49" value="" style="endArrow=none;html=1;rounded=0;exitX=0.5;exitY=0;exitDx=0;exitDy=0;entryX=0.5;entryY=1;entryDx=0;entryDy=0;" edge="1" parent="1" source="Zwj_HbS0Xo6QSIKevfj4-48" target="Zwj_HbS0Xo6QSIKevfj4-7">
          <mxGeometry width="50" height="50" relative="1" as="geometry">
            <mxPoint x="-1030" y="772.5" as="sourcePoint" />
            <mxPoint x="-980" y="722.5" as="targetPoint" />
          </mxGeometry>
        </mxCell>
        <mxCell id="Zwj_HbS0Xo6QSIKevfj4-51" value="" style="endArrow=none;html=1;rounded=0;exitX=0.217;exitY=0.05;exitDx=0;exitDy=0;exitPerimeter=0;entryX=0.5;entryY=1;entryDx=0;entryDy=0;" edge="1" parent="1" source="Zwj_HbS0Xo6QSIKevfj4-52" target="Zwj_HbS0Xo6QSIKevfj4-7">
          <mxGeometry width="50" height="50" relative="1" as="geometry">
            <mxPoint x="-920" y="782.5" as="sourcePoint" />
            <mxPoint x="-980" y="722.5" as="targetPoint" />
          </mxGeometry>
        </mxCell>
        <mxCell id="Zwj_HbS0Xo6QSIKevfj4-52" value="답변 내용" style="ellipse;whiteSpace=wrap;html=1;aspect=fixed;" vertex="1" parent="1">
          <mxGeometry x="-920" y="775" width="70" height="70" as="geometry" />
        </mxCell>
        <mxCell id="Zwj_HbS0Xo6QSIKevfj4-54" value="" style="endArrow=none;html=1;rounded=0;exitX=0.963;exitY=0.217;exitDx=0;exitDy=0;exitPerimeter=0;entryX=0.404;entryY=1.017;entryDx=0;entryDy=0;entryPerimeter=0;" edge="1" parent="1" source="Zwj_HbS0Xo6QSIKevfj4-56" target="Zwj_HbS0Xo6QSIKevfj4-5">
          <mxGeometry width="50" height="50" relative="1" as="geometry">
            <mxPoint x="-365" y="560" as="sourcePoint" />
            <mxPoint x="-295" y="480" as="targetPoint" />
          </mxGeometry>
        </mxCell>
        <mxCell id="Zwj_HbS0Xo6QSIKevfj4-56" value="공지사항_ID" style="ellipse;whiteSpace=wrap;html=1;" vertex="1" parent="1">
          <mxGeometry x="-530" y="480" width="80" height="60" as="geometry" />
        </mxCell>
        <mxCell id="Zwj_HbS0Xo6QSIKevfj4-57" value="" style="endArrow=none;html=1;rounded=0;" edge="1" parent="1" source="Zwj_HbS0Xo6QSIKevfj4-58">
          <mxGeometry width="50" height="50" relative="1" as="geometry">
            <mxPoint x="-315" y="560" as="sourcePoint" />
            <mxPoint x="-300" y="435" as="targetPoint" />
          </mxGeometry>
        </mxCell>
        <mxCell id="Zwj_HbS0Xo6QSIKevfj4-58" value="공지구분" style="ellipse;whiteSpace=wrap;html=1;" vertex="1" parent="1">
          <mxGeometry x="-490" y="560" width="70" height="60" as="geometry" />
        </mxCell>
        <mxCell id="Zwj_HbS0Xo6QSIKevfj4-59" value="" style="endArrow=none;html=1;rounded=0;exitX=0.786;exitY=0.057;exitDx=0;exitDy=0;entryX=0.413;entryY=1;entryDx=0;entryDy=0;entryPerimeter=0;exitPerimeter=0;" edge="1" parent="1" source="Zwj_HbS0Xo6QSIKevfj4-60" target="Zwj_HbS0Xo6QSIKevfj4-5">
          <mxGeometry width="50" height="50" relative="1" as="geometry">
            <mxPoint x="-305" y="580" as="sourcePoint" />
            <mxPoint x="-295" y="480" as="targetPoint" />
          </mxGeometry>
        </mxCell>
        <mxCell id="Zwj_HbS0Xo6QSIKevfj4-60" value="제목" style="ellipse;whiteSpace=wrap;html=1;" vertex="1" parent="1">
          <mxGeometry x="-405" y="585" width="70" height="70" as="geometry" />
        </mxCell>
        <mxCell id="Zwj_HbS0Xo6QSIKevfj4-61" value="내용" style="ellipse;whiteSpace=wrap;html=1;" vertex="1" parent="1">
          <mxGeometry x="-323.75" y="610" width="80" height="70" as="geometry" />
        </mxCell>
        <mxCell id="Zwj_HbS0Xo6QSIKevfj4-62" value="첨부파일 경로" style="ellipse;whiteSpace=wrap;html=1;" vertex="1" parent="1">
          <mxGeometry x="-230" y="600" width="80" height="70" as="geometry" />
        </mxCell>
        <mxCell id="Zwj_HbS0Xo6QSIKevfj4-63" value="등록일" style="ellipse;whiteSpace=wrap;html=1;" vertex="1" parent="1">
          <mxGeometry x="-140" y="565" width="70" height="65" as="geometry" />
        </mxCell>
        <mxCell id="Zwj_HbS0Xo6QSIKevfj4-64" value="수정일" style="ellipse;whiteSpace=wrap;html=1;" vertex="1" parent="1">
          <mxGeometry x="-80" y="500" width="70" height="70" as="geometry" />
        </mxCell>
        <mxCell id="Zwj_HbS0Xo6QSIKevfj4-67" value="" style="endArrow=none;html=1;rounded=0;exitX=0.5;exitY=0;exitDx=0;exitDy=0;entryX=0.413;entryY=1.009;entryDx=0;entryDy=0;entryPerimeter=0;" edge="1" parent="1" source="Zwj_HbS0Xo6QSIKevfj4-61" target="Zwj_HbS0Xo6QSIKevfj4-5">
          <mxGeometry width="50" height="50" relative="1" as="geometry">
            <mxPoint x="-305" y="560" as="sourcePoint" />
            <mxPoint x="-290" y="480" as="targetPoint" />
          </mxGeometry>
        </mxCell>
        <mxCell id="Zwj_HbS0Xo6QSIKevfj4-68" value="" style="endArrow=none;html=1;rounded=0;exitX=0.325;exitY=0.043;exitDx=0;exitDy=0;exitPerimeter=0;entryX=0.422;entryY=1.017;entryDx=0;entryDy=0;entryPerimeter=0;" edge="1" parent="1" source="Zwj_HbS0Xo6QSIKevfj4-62" target="Zwj_HbS0Xo6QSIKevfj4-5">
          <mxGeometry width="50" height="50" relative="1" as="geometry">
            <mxPoint x="-227.06056737452582" y="615.8431694272685" as="sourcePoint" />
            <mxPoint x="-290" y="480" as="targetPoint" />
          </mxGeometry>
        </mxCell>
        <mxCell id="Zwj_HbS0Xo6QSIKevfj4-69" value="" style="endArrow=none;html=1;rounded=0;entryX=0.271;entryY=0.031;entryDx=0;entryDy=0;entryPerimeter=0;exitX=0.43;exitY=1.009;exitDx=0;exitDy=0;exitPerimeter=0;" edge="1" parent="1" source="Zwj_HbS0Xo6QSIKevfj4-5" target="Zwj_HbS0Xo6QSIKevfj4-63">
          <mxGeometry width="50" height="50" relative="1" as="geometry">
            <mxPoint x="-250" y="460" as="sourcePoint" />
            <mxPoint x="-200" y="480" as="targetPoint" />
          </mxGeometry>
        </mxCell>
        <mxCell id="Zwj_HbS0Xo6QSIKevfj4-70" value="" style="endArrow=none;html=1;rounded=0;entryX=0.029;entryY=0.286;entryDx=0;entryDy=0;entryPerimeter=0;" edge="1" parent="1" target="Zwj_HbS0Xo6QSIKevfj4-64">
          <mxGeometry width="50" height="50" relative="1" as="geometry">
            <mxPoint x="-300" y="435" as="sourcePoint" />
            <mxPoint x="-70" y="510" as="targetPoint" />
          </mxGeometry>
        </mxCell>
        <mxCell id="Zwj_HbS0Xo6QSIKevfj4-72" value="극장명" style="ellipse;whiteSpace=wrap;html=1;" vertex="1" parent="1">
          <mxGeometry x="120" y="800" width="70" height="60" as="geometry" />
        </mxCell>
        <mxCell id="Zwj_HbS0Xo6QSIKevfj4-73" value="FAQ 카테고리_ID" style="ellipse;whiteSpace=wrap;html=1;" vertex="1" parent="1">
          <mxGeometry x="10" y="188.13" width="100" height="61.87" as="geometry" />
        </mxCell>
        <mxCell id="Zwj_HbS0Xo6QSIKevfj4-74" value="카테고리명" style="ellipse;whiteSpace=wrap;html=1;" vertex="1" parent="1">
          <mxGeometry x="180" y="188.75" width="110" height="52.5" as="geometry" />
        </mxCell>
        <mxCell id="Zwj_HbS0Xo6QSIKevfj4-75" value="극장정보_ID" style="ellipse;whiteSpace=wrap;html=1;" vertex="1" parent="1">
          <mxGeometry x="60" y="740" width="70" height="60" as="geometry" />
        </mxCell>
        <mxCell id="Zwj_HbS0Xo6QSIKevfj4-76" value="지역명" style="ellipse;whiteSpace=wrap;html=1;" vertex="1" parent="1">
          <mxGeometry x="280" y="800" width="70" height="60" as="geometry" />
        </mxCell>
        <mxCell id="Zwj_HbS0Xo6QSIKevfj4-77" value="" style="endArrow=none;html=1;rounded=0;entryX=0;entryY=0;entryDx=0;entryDy=0;exitX=0.6;exitY=0.035;exitDx=0;exitDy=0;exitPerimeter=0;" edge="1" parent="1" source="Zwj_HbS0Xo6QSIKevfj4-73" target="Zwj_HbS0Xo6QSIKevfj4-74">
          <mxGeometry width="50" height="50" relative="1" as="geometry">
            <mxPoint x="90" y="212.5" as="sourcePoint" />
            <mxPoint x="140" y="162.5" as="targetPoint" />
            <Array as="points">
              <mxPoint x="140" y="150" />
            </Array>
          </mxGeometry>
        </mxCell>
        <mxCell id="Zwj_HbS0Xo6QSIKevfj4-78" value="1:1 문의 답변_ID" style="ellipse;whiteSpace=wrap;html=1;" vertex="1" parent="1">
          <mxGeometry x="-1120" y="752.5" width="90" height="60" as="geometry" />
        </mxCell>
        <mxCell id="Zwj_HbS0Xo6QSIKevfj4-79" value="" style="endArrow=none;html=1;rounded=0;exitX=0.5;exitY=0;exitDx=0;exitDy=0;entryX=0.5;entryY=1;entryDx=0;entryDy=0;" edge="1" parent="1" source="Zwj_HbS0Xo6QSIKevfj4-78" target="Zwj_HbS0Xo6QSIKevfj4-7">
          <mxGeometry width="50" height="50" relative="1" as="geometry">
            <mxPoint x="-1030" y="772.5" as="sourcePoint" />
            <mxPoint x="-980" y="722.5" as="targetPoint" />
          </mxGeometry>
        </mxCell>
        <mxCell id="Zwj_HbS0Xo6QSIKevfj4-80" value="연락처" style="ellipse;whiteSpace=wrap;html=1;" vertex="1" parent="1">
          <mxGeometry x="200" y="820" width="70" height="60" as="geometry" />
        </mxCell>
        <mxCell id="Zwj_HbS0Xo6QSIKevfj4-81" value="주소" style="ellipse;whiteSpace=wrap;html=1;" vertex="1" parent="1">
          <mxGeometry x="340" y="740" width="70" height="60" as="geometry" />
        </mxCell>
        <mxCell id="Zwj_HbS0Xo6QSIKevfj4-82" value="" style="endArrow=none;html=1;rounded=0;exitX=0.071;exitY=0.283;exitDx=0;exitDy=0;exitPerimeter=0;" edge="1" parent="1" source="Zwj_HbS0Xo6QSIKevfj4-81">
          <mxGeometry width="50" height="50" relative="1" as="geometry">
            <mxPoint x="190" y="780" as="sourcePoint" />
            <mxPoint x="240" y="730" as="targetPoint" />
          </mxGeometry>
        </mxCell>
        <mxCell id="Zwj_HbS0Xo6QSIKevfj4-83" value="" style="endArrow=none;html=1;rounded=0;" edge="1" parent="1" source="Zwj_HbS0Xo6QSIKevfj4-76">
          <mxGeometry width="50" height="50" relative="1" as="geometry">
            <mxPoint x="190" y="780" as="sourcePoint" />
            <mxPoint x="240" y="730" as="targetPoint" />
          </mxGeometry>
        </mxCell>
        <mxCell id="Zwj_HbS0Xo6QSIKevfj4-84" value="" style="endArrow=none;html=1;rounded=0;exitX=0.5;exitY=0;exitDx=0;exitDy=0;" edge="1" parent="1" source="Zwj_HbS0Xo6QSIKevfj4-80">
          <mxGeometry width="50" height="50" relative="1" as="geometry">
            <mxPoint x="190" y="780" as="sourcePoint" />
            <mxPoint x="240" y="730" as="targetPoint" />
          </mxGeometry>
        </mxCell>
        <mxCell id="Zwj_HbS0Xo6QSIKevfj4-85" value="" style="endArrow=none;html=1;rounded=0;exitX=0.5;exitY=0;exitDx=0;exitDy=0;" edge="1" parent="1" source="Zwj_HbS0Xo6QSIKevfj4-72">
          <mxGeometry width="50" height="50" relative="1" as="geometry">
            <mxPoint x="190" y="780" as="sourcePoint" />
            <mxPoint x="240" y="730" as="targetPoint" />
          </mxGeometry>
        </mxCell>
        <mxCell id="Zwj_HbS0Xo6QSIKevfj4-86" value="" style="endArrow=none;html=1;rounded=0;exitX=1;exitY=0;exitDx=0;exitDy=0;" edge="1" parent="1" source="Zwj_HbS0Xo6QSIKevfj4-75">
          <mxGeometry width="50" height="50" relative="1" as="geometry">
            <mxPoint x="130" y="750" as="sourcePoint" />
            <mxPoint x="250" y="730" as="targetPoint" />
          </mxGeometry>
        </mxCell>
        <mxCell id="Zwj_HbS0Xo6QSIKevfj4-87" value="질문 제목" style="ellipse;whiteSpace=wrap;html=1;" vertex="1" parent="1">
          <mxGeometry x="300" y="435" width="70" height="65" as="geometry" />
        </mxCell>
        <mxCell id="Zwj_HbS0Xo6QSIKevfj4-88" value="자주 묻는 질문_ID" style="ellipse;whiteSpace=wrap;html=1;" vertex="1" parent="1">
          <mxGeometry x="240" y="360" width="100" height="60" as="geometry" />
        </mxCell>
        <mxCell id="Zwj_HbS0Xo6QSIKevfj4-89" value="답변 내용" style="ellipse;whiteSpace=wrap;html=1;" vertex="1" parent="1">
          <mxGeometry x="379" y="455" width="70" height="65" as="geometry" />
        </mxCell>
        <mxCell id="Zwj_HbS0Xo6QSIKevfj4-90" value="등록일&amp;nbsp;" style="ellipse;whiteSpace=wrap;html=1;" vertex="1" parent="1">
          <mxGeometry x="470" y="435" width="70" height="62.5" as="geometry" />
        </mxCell>
        <mxCell id="Zwj_HbS0Xo6QSIKevfj4-91" value="수정일" style="ellipse;whiteSpace=wrap;html=1;" vertex="1" parent="1">
          <mxGeometry x="550" y="380" width="70" height="65" as="geometry" />
        </mxCell>
        <mxCell id="Zwj_HbS0Xo6QSIKevfj4-92" value="" style="endArrow=none;html=1;rounded=0;exitX=1.01;exitY=0.35;exitDx=0;exitDy=0;exitPerimeter=0;" edge="1" parent="1" source="Zwj_HbS0Xo6QSIKevfj4-88">
          <mxGeometry width="50" height="50" relative="1" as="geometry">
            <mxPoint x="380" y="410" as="sourcePoint" />
            <mxPoint x="430" y="360" as="targetPoint" />
          </mxGeometry>
        </mxCell>
        <mxCell id="Zwj_HbS0Xo6QSIKevfj4-93" value="" style="endArrow=none;html=1;rounded=0;exitX=0.386;exitY=0.032;exitDx=0;exitDy=0;exitPerimeter=0;" edge="1" parent="1" source="Zwj_HbS0Xo6QSIKevfj4-90">
          <mxGeometry width="50" height="50" relative="1" as="geometry">
            <mxPoint x="449" y="427.5" as="sourcePoint" />
            <mxPoint x="430" y="360" as="targetPoint" />
          </mxGeometry>
        </mxCell>
        <mxCell id="Zwj_HbS0Xo6QSIKevfj4-94" value="" style="endArrow=none;html=1;rounded=0;exitX=0.5;exitY=0;exitDx=0;exitDy=0;" edge="1" parent="1" source="Zwj_HbS0Xo6QSIKevfj4-89">
          <mxGeometry width="50" height="50" relative="1" as="geometry">
            <mxPoint x="410" y="460" as="sourcePoint" />
            <mxPoint x="430" y="360" as="targetPoint" />
          </mxGeometry>
        </mxCell>
        <mxCell id="Zwj_HbS0Xo6QSIKevfj4-95" value="" style="endArrow=none;html=1;rounded=0;exitX=0.786;exitY=0.046;exitDx=0;exitDy=0;exitPerimeter=0;" edge="1" parent="1" source="Zwj_HbS0Xo6QSIKevfj4-87">
          <mxGeometry width="50" height="50" relative="1" as="geometry">
            <mxPoint x="380" y="410" as="sourcePoint" />
            <mxPoint x="430" y="360" as="targetPoint" />
          </mxGeometry>
        </mxCell>
        <mxCell id="Zwj_HbS0Xo6QSIKevfj4-97" value="" style="endArrow=none;html=1;rounded=0;entryX=0.243;entryY=0.108;entryDx=0;entryDy=0;entryPerimeter=0;" edge="1" parent="1" target="Zwj_HbS0Xo6QSIKevfj4-91">
          <mxGeometry width="50" height="50" relative="1" as="geometry">
            <mxPoint x="430" y="360" as="sourcePoint" />
            <mxPoint x="550" y="340" as="targetPoint" />
          </mxGeometry>
        </mxCell>
        <mxCell id="Zwj_HbS0Xo6QSIKevfj4-98" value="" style="endArrow=none;html=1;rounded=0;exitX=0.967;exitY=0.376;exitDx=0;exitDy=0;exitPerimeter=0;" edge="1" parent="1" source="Zwj_HbS0Xo6QSIKevfj4-100">
          <mxGeometry width="50" height="50" relative="1" as="geometry">
            <mxPoint x="-410" y="150" as="sourcePoint" />
            <mxPoint x="-300" y="120" as="targetPoint" />
          </mxGeometry>
        </mxCell>
        <mxCell id="Zwj_HbS0Xo6QSIKevfj4-100" value="이용자_ID" style="ellipse;whiteSpace=wrap;html=1;" vertex="1" parent="1">
          <mxGeometry x="-475" y="136.25" width="60" height="52.5" as="geometry" />
        </mxCell>
        <mxCell id="Zwj_HbS0Xo6QSIKevfj4-104" value="답변일" style="ellipse;whiteSpace=wrap;html=1;" vertex="1" parent="1">
          <mxGeometry x="-590" y="177.5" width="60" height="60" as="geometry" />
        </mxCell>
        <mxCell id="Zwj_HbS0Xo6QSIKevfj4-105" value="등록일" style="ellipse;whiteSpace=wrap;html=1;" vertex="1" parent="1">
          <mxGeometry x="-680" y="307.5" width="60" height="60" as="geometry" />
        </mxCell>
        <mxCell id="Zwj_HbS0Xo6QSIKevfj4-106" value="제목" style="ellipse;whiteSpace=wrap;html=1;" vertex="1" parent="1">
          <mxGeometry x="-1110" y="270" width="67" height="60" as="geometry" />
        </mxCell>
        <mxCell id="Zwj_HbS0Xo6QSIKevfj4-107" value="상태" style="ellipse;whiteSpace=wrap;html=1;" vertex="1" parent="1">
          <mxGeometry x="-850" y="363.75" width="60" height="56.25" as="geometry" />
        </mxCell>
        <mxCell id="Zwj_HbS0Xo6QSIKevfj4-108" value="첨부파일 경로" style="ellipse;whiteSpace=wrap;html=1;" vertex="1" parent="1">
          <mxGeometry x="-670" y="110" width="80" height="57.5" as="geometry" />
        </mxCell>
        <mxCell id="Zwj_HbS0Xo6QSIKevfj4-109" value="문의내용" style="ellipse;whiteSpace=wrap;html=1;" vertex="1" parent="1">
          <mxGeometry x="-1010" y="330" width="60" height="60" as="geometry" />
        </mxCell>
        <mxCell id="Zwj_HbS0Xo6QSIKevfj4-110" value="문의 유형" style="ellipse;whiteSpace=wrap;html=1;" vertex="1" parent="1">
          <mxGeometry x="-1120" y="188.75" width="60" height="61.25" as="geometry" />
        </mxCell>
        <mxCell id="Zwj_HbS0Xo6QSIKevfj4-111" value="비회원 게시글 비밀번호" style="ellipse;whiteSpace=wrap;html=1;" vertex="1" parent="1">
          <mxGeometry x="-740" y="184.38" width="120" height="61.25" as="geometry" />
        </mxCell>
        <mxCell id="Zwj_HbS0Xo6QSIKevfj4-112" value="비회원 이메일" style="ellipse;whiteSpace=wrap;html=1;" vertex="1" parent="1">
          <mxGeometry x="-796.5" y="261.25" width="80" height="58.75" as="geometry" />
        </mxCell>
        <mxCell id="Zwj_HbS0Xo6QSIKevfj4-113" value="비회원 휴대폰 번호" style="ellipse;whiteSpace=wrap;html=1;" vertex="1" parent="1">
          <mxGeometry x="-930" y="277.5" width="100" height="60" as="geometry" />
        </mxCell>
        <mxCell id="Zwj_HbS0Xo6QSIKevfj4-114" value="비회원 이름" style="ellipse;whiteSpace=wrap;html=1;" vertex="1" parent="1">
          <mxGeometry x="-1000" y="220" width="70" height="55" as="geometry" />
        </mxCell>
        <mxCell id="Zwj_HbS0Xo6QSIKevfj4-115" value="1:1 문의_ID" style="ellipse;whiteSpace=wrap;html=1;" vertex="1" parent="1">
          <mxGeometry x="-1037" y="128.13" width="70" height="60" as="geometry" />
        </mxCell>
        <mxCell id="OxMHIdnT5sfjgw7uyhR3-1" value="" style="endArrow=none;html=1;rounded=0;exitX=0;exitY=0;exitDx=0;exitDy=0;" edge="1" parent="1" source="Zwj_HbS0Xo6QSIKevfj4-104">
          <mxGeometry width="50" height="50" relative="1" as="geometry">
            <mxPoint x="-877" y="168.75" as="sourcePoint" />
            <mxPoint x="-827" y="118.75" as="targetPoint" />
          </mxGeometry>
        </mxCell>
        <mxCell id="OxMHIdnT5sfjgw7uyhR3-2" value="" style="endArrow=none;html=1;rounded=0;exitX=0.267;exitY=0.025;exitDx=0;exitDy=0;exitPerimeter=0;" edge="1" parent="1" source="Zwj_HbS0Xo6QSIKevfj4-105">
          <mxGeometry width="50" height="50" relative="1" as="geometry">
            <mxPoint x="-877" y="167.5" as="sourcePoint" />
            <mxPoint x="-827" y="117.5" as="targetPoint" />
          </mxGeometry>
        </mxCell>
        <mxCell id="OxMHIdnT5sfjgw7uyhR3-3" value="" style="endArrow=none;html=1;rounded=0;exitX=0.5;exitY=0;exitDx=0;exitDy=0;" edge="1" parent="1" source="Zwj_HbS0Xo6QSIKevfj4-107">
          <mxGeometry width="50" height="50" relative="1" as="geometry">
            <mxPoint x="-877" y="168.75" as="sourcePoint" />
            <mxPoint x="-827" y="118.75" as="targetPoint" />
          </mxGeometry>
        </mxCell>
        <mxCell id="OxMHIdnT5sfjgw7uyhR3-4" value="" style="endArrow=none;html=1;rounded=0;exitX=0.683;exitY=-0.033;exitDx=0;exitDy=0;exitPerimeter=0;" edge="1" parent="1" source="Zwj_HbS0Xo6QSIKevfj4-109">
          <mxGeometry width="50" height="50" relative="1" as="geometry">
            <mxPoint x="-880" y="167.5" as="sourcePoint" />
            <mxPoint x="-830" y="117.5" as="targetPoint" />
          </mxGeometry>
        </mxCell>
        <mxCell id="OxMHIdnT5sfjgw7uyhR3-5" value="" style="endArrow=none;html=1;rounded=0;exitX=0.5;exitY=0;exitDx=0;exitDy=0;" edge="1" parent="1" source="Zwj_HbS0Xo6QSIKevfj4-106">
          <mxGeometry width="50" height="50" relative="1" as="geometry">
            <mxPoint x="-1060" y="260" as="sourcePoint" />
            <mxPoint x="-830" y="118.75" as="targetPoint" />
          </mxGeometry>
        </mxCell>
        <mxCell id="OxMHIdnT5sfjgw7uyhR3-6" value="" style="endArrow=none;html=1;rounded=0;exitX=1;exitY=0.5;exitDx=0;exitDy=0;" edge="1" parent="1" source="Zwj_HbS0Xo6QSIKevfj4-110">
          <mxGeometry width="50" height="50" relative="1" as="geometry">
            <mxPoint x="-880" y="168.75" as="sourcePoint" />
            <mxPoint x="-830" y="118.75" as="targetPoint" />
          </mxGeometry>
        </mxCell>
        <mxCell id="OxMHIdnT5sfjgw7uyhR3-7" value="" style="endArrow=none;html=1;rounded=0;" edge="1" parent="1" source="Zwj_HbS0Xo6QSIKevfj4-108">
          <mxGeometry width="50" height="50" relative="1" as="geometry">
            <mxPoint x="-760" y="160" as="sourcePoint" />
            <mxPoint x="-830" y="120" as="targetPoint" />
          </mxGeometry>
        </mxCell>
        <mxCell id="OxMHIdnT5sfjgw7uyhR3-8" value="" style="endArrow=none;html=1;rounded=0;" edge="1" parent="1" source="Zwj_HbS0Xo6QSIKevfj4-111">
          <mxGeometry width="50" height="50" relative="1" as="geometry">
            <mxPoint x="-770" y="178.13" as="sourcePoint" />
            <mxPoint x="-830" y="120" as="targetPoint" />
          </mxGeometry>
        </mxCell>
        <mxCell id="OxMHIdnT5sfjgw7uyhR3-9" value="" style="endArrow=none;html=1;rounded=0;exitX=0.394;exitY=-0.004;exitDx=0;exitDy=0;exitPerimeter=0;" edge="1" parent="1" source="Zwj_HbS0Xo6QSIKevfj4-112">
          <mxGeometry width="50" height="50" relative="1" as="geometry">
            <mxPoint x="-877" y="168.75" as="sourcePoint" />
            <mxPoint x="-827" y="118.75" as="targetPoint" />
          </mxGeometry>
        </mxCell>
        <mxCell id="OxMHIdnT5sfjgw7uyhR3-10" value="" style="endArrow=none;html=1;rounded=0;exitX=1;exitY=0;exitDx=0;exitDy=0;" edge="1" parent="1" source="Zwj_HbS0Xo6QSIKevfj4-114">
          <mxGeometry width="50" height="50" relative="1" as="geometry">
            <mxPoint x="-950" y="220" as="sourcePoint" />
            <mxPoint x="-830" y="118.75" as="targetPoint" />
          </mxGeometry>
        </mxCell>
        <mxCell id="OxMHIdnT5sfjgw7uyhR3-11" value="" style="endArrow=none;html=1;rounded=0;exitX=0.5;exitY=0;exitDx=0;exitDy=0;" edge="1" parent="1" source="Zwj_HbS0Xo6QSIKevfj4-113">
          <mxGeometry width="50" height="50" relative="1" as="geometry">
            <mxPoint x="-877" y="168.75" as="sourcePoint" />
            <mxPoint x="-827" y="118.75" as="targetPoint" />
          </mxGeometry>
        </mxCell>
        <mxCell id="OxMHIdnT5sfjgw7uyhR3-12" value="" style="endArrow=none;html=1;rounded=0;exitX=0.957;exitY=0.198;exitDx=0;exitDy=0;exitPerimeter=0;" edge="1" parent="1" source="Zwj_HbS0Xo6QSIKevfj4-115">
          <mxGeometry width="50" height="50" relative="1" as="geometry">
            <mxPoint x="-880" y="168.75" as="sourcePoint" />
            <mxPoint x="-830" y="118.75" as="targetPoint" />
          </mxGeometry>
        </mxCell>
      </root>
    </mxGraphModel>
  </diagram>
</mxfile>
